<svg width="32" height="32" viewBox="0 0 32 32" fill="none" xmlns="http://www.w3.org/2000/svg">
<g clip-path="url(#clip0_518_252)">
<path d="M0.110518 9.94392C0.0301413 9.99913 0 10.0694 0 10.21C0 10.4258 0.0954474 10.5412 0.356672 10.6266C0.477237 10.6667 2.28571 10.6918 6.45526 10.7169C9.71554 10.737 12.4333 10.7722 12.4936 10.7922C12.5991 10.8274 12.5991 10.8274 12.5086 10.983C12.4584 11.0733 12.4031 11.2641 12.383 11.4096C12.3429 11.7008 12.3027 11.7409 11.956 11.7961C11.4135 11.8865 9.3237 12.5491 7.56546 13.1866C5.77708 13.8341 5.64647 13.9094 5.70173 14.2357C5.74192 14.4816 5.72182 14.5218 5.02355 15.3851C4.43077 16.128 4.09922 16.5848 3.94851 16.876C3.84804 17.0767 3.7325 17.1069 2.76295 17.2173C1.76327 17.3227 1.51711 17.3779 1.45181 17.4984C1.37645 17.644 1.5573 17.8849 1.92904 18.1359C2.35102 18.422 3.6471 19.0444 4.54631 19.3958C6.07849 19.9981 6.74662 20.1537 7.79152 20.1537H8.43956V20.6557V21.1577H7.07818H5.72182L5.17928 20.8615C3.78776 20.0935 3.27033 19.8927 3.1146 20.0785C2.9438 20.2843 3.2 20.485 4.56138 21.2179L5.56107 21.76L8.06782 21.755C9.44929 21.755 11.8556 21.7349 13.4179 21.7148C16.432 21.6697 16.5526 21.6596 16.5526 21.4337C16.5526 21.233 16.3265 21.1928 15.1359 21.1677L14.0157 21.1426V20.6507V20.1537H14.1815C14.6788 20.1537 15.7137 19.7522 16.638 19.205C18.2757 18.2312 19.4562 17.0316 20.0892 15.7064L20.2549 15.35L21.3702 15.3149C21.978 15.2998 23.8066 15.2697 25.4292 15.2496L28.378 15.2195L28.5137 15.3651C28.589 15.4454 28.7749 15.7265 28.9306 15.9875C29.0964 16.2586 29.2873 16.5095 29.3777 16.5698C29.5385 16.6802 29.8097 16.7204 30.6436 16.7505C30.9451 16.7655 30.9702 16.7555 30.9601 16.6651C30.9551 16.6099 30.9099 16.123 30.8647 15.5809L30.7793 14.5921L31.1359 13.9746C31.5529 13.2368 32 12.3734 32 12.2881C32 12.1726 31.6936 11.8765 31.5228 11.8212C31.1711 11.7058 31.0254 11.8112 29.5535 13.2368C29.0612 13.7136 28.805 13.9295 28.7246 13.9295C28.6593 13.9295 26.7203 13.819 24.4144 13.6785L20.2198 13.4225L19.2904 12.9757C17.2207 11.9819 16.5375 11.8112 14.4126 11.7409L13.3727 11.7058L13.3425 11.3745C13.3224 11.1938 13.2973 10.9729 13.2823 10.8826L13.2521 10.722L19.2452 10.7019C25.806 10.6818 25.595 10.6918 25.7758 10.3957C25.9064 10.1798 25.9014 9.97404 25.7608 9.92384C25.6301 9.87365 23.5856 9.91882 19.9686 10.0443C16.1557 10.1798 12.4534 10.1648 8.44961 9.99913C4.51115 9.83349 0.306436 9.80337 0.110518 9.94392ZM8.81633 10.3103L10.876 10.4007L6.27943 10.4057C2.16515 10.4107 0.39686 10.3806 0.316484 10.3003C0.301413 10.2853 0.306436 10.2451 0.326531 10.21C0.38179 10.1246 6.20408 10.1899 8.81633 10.3103ZM25.4845 10.2702C25.384 10.3706 24.108 10.4107 21.4254 10.4057C19.2151 10.4007 18.9639 10.3957 19.7928 10.3605C22.8672 10.225 25.5699 10.1849 25.4845 10.2702ZM12.3981 10.4509C12.3479 10.4609 12.2575 10.4609 12.1972 10.4509C12.1319 10.4409 12.1721 10.4308 12.2826 10.4308C12.3931 10.4258 12.4433 10.4358 12.3981 10.4509ZM12.8603 10.5162C12.8603 10.5412 12.79 10.5513 12.6995 10.5312C12.4684 10.4911 12.4584 10.466 12.6744 10.466C12.7799 10.466 12.8603 10.486 12.8603 10.5162ZM13.0411 11.5401L13.0763 12.022H13.659C14.5181 12.022 15.794 12.1074 16.2813 12.1977C17.1655 12.3634 17.7181 12.5692 19.1397 13.2518L20.1193 13.7237L24.3391 13.9797C26.66 14.1202 28.6392 14.2407 28.7397 14.2457C28.9105 14.2557 28.9758 14.2055 29.9403 13.287C30.503 12.7499 31.0455 12.2579 31.151 12.1877C31.3319 12.0722 31.3469 12.0672 31.4926 12.1475C31.578 12.1877 31.6484 12.263 31.6484 12.3081C31.6484 12.3985 31.2615 13.1414 30.7893 13.9646C30.4377 14.572 30.4377 14.6222 30.6185 16.2084L30.6487 16.4543L30.1564 16.4192C29.87 16.3991 29.6188 16.3539 29.5535 16.3138C29.4932 16.2736 29.3224 16.0327 29.1717 15.7767C29.016 15.5207 28.81 15.2295 28.7096 15.1342L28.5287 14.9585L27.7903 14.9334C27.0619 14.9083 24.2989 14.9434 21.4958 15.0137L20.059 15.0488L19.838 15.5056C19.3808 16.4493 18.7228 17.2775 17.8939 17.9602C17.0951 18.6077 15.8895 19.3305 15.0958 19.6267C14.4628 19.8676 14.1664 19.8777 10.3485 19.8526L6.80691 19.8225L6.16892 19.6367C4.87284 19.2653 2.81319 18.3668 2.00942 17.8247L1.78838 17.6741L1.919 17.6389C1.99435 17.6189 2.40126 17.5636 2.82323 17.5185C3.97363 17.393 4.02386 17.3729 4.35542 16.8007C4.46091 16.62 4.84772 16.0979 5.21947 15.6411C5.92276 14.7677 6.10361 14.4716 6.04835 14.2608C6.02323 14.1604 6.04835 14.1252 6.17896 14.055C6.88226 13.6935 10.7253 12.3985 11.9209 12.1224C12.5538 11.9768 12.6443 11.9066 12.6895 11.515C12.7096 11.3444 12.7648 11.1637 12.8151 11.0984C12.8703 11.0332 12.9105 10.9478 12.9155 10.9077C12.9256 10.7019 13.011 11.1285 13.0411 11.5401ZM13.4129 20.6557V21.1577H11.2025H8.99215V20.6908C8.99215 20.4298 9.00722 20.2039 9.02732 20.1889C9.04239 20.1688 10.037 20.1537 11.2377 20.1537H13.4129V20.6557Z" fill="black" stroke="black" stroke-width="0.2"/>
<path d="M14.6098 14.5418L14.5948 15.2596L13.9769 15.2847C13.3992 15.3098 13.3489 15.3198 13.2585 15.4303C13.1078 15.611 13.1229 16.0527 13.2887 16.2133C13.4042 16.3338 13.4394 16.3388 14.0171 16.3388H14.6199V17.0667V17.7945H15.2227H15.8205L15.8356 17.0767L15.8507 16.3639L16.4183 16.3388C17.1015 16.3087 17.1317 16.2836 17.1317 15.8067C17.1317 15.5758 17.1066 15.4654 17.0362 15.3801C16.9458 15.2646 16.9106 15.2596 16.3832 15.2646L15.8255 15.2747V14.5518V13.829H15.2227H14.6249L14.6098 14.5418ZM15.5241 14.8681V15.6009L16.0968 15.5708C16.4133 15.5507 16.7047 15.5507 16.7499 15.5658C16.8051 15.5859 16.8303 15.6612 16.8303 15.8168V16.0376H16.1772H15.5241V16.7655V17.4933H15.2227H14.9213V16.7655V16.0427L14.208 16.0276L13.4896 16.0125V15.8118V15.611L14.208 15.5959L14.9213 15.5809V14.858V14.1302H15.2227H15.5241V14.8681Z" fill="#EC7D1A"/>
<path d="M6.47174 14.6623C6.42653 14.6774 6.28085 14.8631 6.15024 15.0739C6.0146 15.2847 5.66798 15.7064 5.37159 16.0126C5.08022 16.3137 4.81397 16.6149 4.77881 16.6752C4.70848 16.8157 4.76876 16.9562 4.93956 17.0516C5.21586 17.2022 7.04945 17.142 7.38101 16.9713C7.63721 16.8358 7.66232 16.7103 7.65228 15.6712C7.64725 15.1492 7.63218 14.7125 7.62716 14.7075C7.59702 14.6774 6.55714 14.6372 6.47174 14.6623ZM7.06955 14.9635L7.32575 14.9986L7.36091 15.621C7.38101 15.9674 7.38101 16.3388 7.35589 16.4543C7.3157 16.64 7.28556 16.6701 7.10973 16.7304C6.8686 16.8107 5.52229 16.8659 5.26107 16.8057L5.07017 16.7655L5.57253 16.2485C5.85385 15.9624 6.19545 15.5508 6.34113 15.3299C6.62747 14.9032 6.6124 14.9083 7.06955 14.9635Z" fill="black"/>
<path d="M8.22914 14.6623C7.97796 14.7075 7.96289 14.7778 7.96289 15.7415C7.96289 16.7505 7.98801 16.8207 8.3698 17.0165C8.55065 17.1068 8.66619 17.1169 9.74625 17.1169C11.0423 17.1169 11.188 17.0918 11.4342 16.8358L11.5798 16.6852V15.7114C11.5798 15.1793 11.5648 14.7276 11.5447 14.7075C11.5045 14.6673 8.4351 14.6272 8.22914 14.6623ZM11.2433 15.0087C11.2634 15.0287 11.2885 15.3249 11.2935 15.6712C11.3287 16.8508 11.3689 16.8157 9.8216 16.8157C8.56069 16.8157 8.37985 16.7806 8.29444 16.5296C8.23416 16.3539 8.21909 15.1392 8.27937 15.0538C8.29947 15.0237 8.3497 14.9836 8.38989 14.9685C8.49036 14.9233 11.1981 14.9635 11.2433 15.0087Z" fill="black"/>
</g>
<defs>
<clipPath id="clip0_518_252">
<rect width="32" height="32" fill="white"/>
</clipPath>
</defs>
</svg>
