<svg width="32" height="32" viewBox="0 0 32 32" fill="none" xmlns="http://www.w3.org/2000/svg">
<path d="M29.2873 23.9923C29.2497 23.9489 29.2039 23.9132 29.1525 23.8875C29.1011 23.8618 29.0452 23.8464 28.9879 23.8424C28.9306 23.8383 28.873 23.8455 28.8185 23.8637C28.764 23.8819 28.7137 23.9106 28.6703 23.9483C28.0647 24.4736 27.2899 24.7628 26.4883 24.7628H25.156V23.0026H26.5003C27.0643 23.0047 27.614 22.8248 28.0676 22.4896C28.5212 22.1544 28.8546 21.6818 29.0183 21.1421C29.3086 20.192 29.3145 19.1777 29.0353 18.2243L29.0333 18.2163C28.9895 18.0676 28.9403 17.9201 28.8833 17.7756L28.3083 16.3326C27.8135 15.0783 26.9608 13.9972 25.8562 13.2241C24.7515 12.4509 23.4438 12.0197 22.0959 11.9843L21.1635 10.3998C21.125 10.3341 21.0698 10.2796 21.0038 10.2418C20.9377 10.204 20.8629 10.184 20.7868 10.1841H20.7488V8.70905C20.7488 8.59302 20.7027 8.48174 20.6206 8.3997C20.5386 8.31765 20.4273 8.27155 20.3113 8.27155H20.0394V7.74455H27.7378C27.8538 7.74455 27.9651 7.69846 28.0471 7.61641C28.1292 7.53437 28.1753 7.42309 28.1753 7.30705C28.1753 7.19102 28.1292 7.07974 28.0471 6.9977C27.9651 6.91565 27.8538 6.86955 27.7378 6.86955H20.0394V6.7998C20.0394 6.68377 19.9934 6.57249 19.9114 6.49045C19.8293 6.4084 19.718 6.3623 19.6019 6.3623C19.4859 6.3623 19.3747 6.4084 19.2927 6.49045C19.2106 6.57249 19.1644 6.68377 19.1644 6.7998V6.87005H11.4662C11.3501 6.87005 11.2389 6.91615 11.1568 6.9982C11.0748 7.08024 11.0287 7.19152 11.0287 7.30755C11.0287 7.42359 11.0748 7.53487 11.1568 7.61691C11.2389 7.69896 11.3501 7.74505 11.4662 7.74505H19.1644V8.27306H18.893C18.777 8.27306 18.6657 8.31916 18.5837 8.40121C18.5016 8.48325 18.4555 8.59453 18.4555 8.71056V10.1856H18.4178C18.3416 10.1856 18.2667 10.2055 18.2006 10.2433C18.1345 10.2811 18.0794 10.3356 18.0408 10.4013L17.113 11.9763H16.8458C16.2092 11.9744 15.5806 12.1182 15.0081 12.3965C14.4355 12.6749 13.9342 13.0805 13.5425 13.5823L13.162 14.0666H10.287C10.2855 14.0664 10.2839 14.0664 10.2824 14.0666H8.53697C8.53548 14.0664 8.53397 14.0664 8.53248 14.0666H5.89747L5.05822 11.5301C5.02936 11.4427 4.97369 11.3667 4.89913 11.3129C4.82458 11.259 4.73495 11.23 4.64297 11.2301H3.04297C2.92694 11.2301 2.81566 11.2761 2.73362 11.3582C2.65157 11.4402 2.60547 11.5515 2.60547 11.6676V14.5038V18.5343C2.60547 18.6503 2.65157 18.7616 2.73362 18.8437C2.81566 18.9257 2.92694 18.9718 3.04297 18.9718H4.86797C4.95823 18.9718 5.04626 18.9439 5.12002 18.8919C5.19378 18.8399 5.24965 18.7663 5.27997 18.6813L5.84222 17.1063L13.0807 17.8973L14.3707 20.7018C14.6877 21.3875 15.1942 21.9683 15.8304 22.3758C16.4665 22.7833 17.2058 23.0005 17.9613 23.0018H18.4555V24.7621H15.5818C15.4657 24.7621 15.3545 24.8081 15.2724 24.8902C15.1904 24.9722 15.1443 25.0835 15.1443 25.1996C15.1443 25.3156 15.1904 25.4269 15.2724 25.5089C15.3545 25.591 15.4657 25.6371 15.5818 25.6371H26.4883C27.5005 25.637 28.4788 25.2718 29.2435 24.6086C29.3309 24.5325 29.3846 24.425 29.3928 24.3095C29.401 24.194 29.363 24.0799 29.2873 23.9923ZM19.8738 9.14755V10.1833H19.3305V9.14755H19.8738ZM27.4943 16.6558L27.9788 17.8728H24.0684L23.2804 14.6291H26.1655C26.7405 15.2082 27.1925 15.8976 27.4943 16.6558ZM18.6677 11.0601H20.5368L21.0753 11.9766H18.1283L18.6677 11.0601ZM9.48022 16.6231L9.09397 14.9416H9.94597L10.3542 16.7186L9.48022 16.6231ZM3.48022 15.9663V14.9413H8.19597L8.55897 16.5218L3.48022 15.9663ZM4.32597 12.1051L4.97597 14.0666H3.48122V12.1051H4.32597ZM4.55922 18.0968H3.48122V16.8468L4.94872 17.0073L4.55922 18.0968ZM15.1648 20.3361L13.7723 17.3066C13.7407 17.2379 13.6918 17.1786 13.6305 17.1344C13.5692 17.0902 13.4974 17.0627 13.4223 17.0546L11.2752 16.8196L10.844 14.9416H13.3753C13.4415 14.9415 13.5069 14.9265 13.5665 14.8975C13.6261 14.8685 13.6783 14.8264 13.7193 14.7743L14.2309 14.1228C14.5411 13.7255 14.938 13.4044 15.3913 13.1841C15.8446 12.9638 16.3423 12.85 16.8463 12.8516H21.8853C23.0087 12.8503 24.1101 13.1628 25.0653 13.7541H23.1402C23.0244 13.7542 22.9103 13.7806 22.8062 13.8313C22.7021 13.882 22.6108 13.9556 22.5392 14.0466C22.4677 14.1377 22.4179 14.2438 22.3934 14.3569C22.3688 14.4701 22.3701 14.5873 22.3974 14.6998L23.2388 18.1631C23.279 18.3299 23.3742 18.4784 23.5092 18.5844C23.6441 18.6905 23.8109 18.7479 23.9825 18.7476H28.2663C28.4222 19.4554 28.3929 20.1916 28.1813 20.8848C28.0721 21.2453 27.8496 21.5609 27.5467 21.7848C27.2439 22.0087 26.8769 22.1289 26.5003 22.1276H17.9613C17.373 22.1265 16.7973 21.9573 16.302 21.6399C15.8067 21.3225 15.4115 20.8701 15.1648 20.3361ZM19.3305 23.0026H24.2804V24.7628H19.3305V23.0026Z" fill="black"/>
<path d="M21.9029 18.4559C21.9748 18.3649 22.025 18.2588 22.0496 18.1455C22.0742 18.0322 22.0726 17.9147 22.0449 17.8021L21.2037 14.3391C21.1635 14.1722 21.0683 14.0237 20.9333 13.9176C20.7984 13.8115 20.6316 13.754 20.4599 13.7544H18.3004C18.0975 13.7546 17.903 13.8353 17.7595 13.9788C17.6161 14.1222 17.5354 14.3168 17.5352 14.5196V17.9829C17.5353 18.1858 17.616 18.3804 17.7594 18.524C17.9029 18.6675 18.0975 18.7482 18.3004 18.7484H21.3004C21.4165 18.7489 21.5312 18.7227 21.6356 18.672C21.74 18.6213 21.8315 18.5474 21.9029 18.4559ZM18.4094 17.8734V14.6294H20.3737L21.1619 17.8734H18.4094Z" fill="#EC7D1A"/>
</svg>
