<svg width="32" height="32" viewBox="0 0 32 32" fill="none" xmlns="http://www.w3.org/2000/svg">
<path d="M29.5404 23.0781H2.46093C2.34492 23.0781 2.23368 23.1243 2.15165 23.2064C2.06961 23.2884 2.0235 23.3996 2.02344 23.5156V25.4939C2.0235 25.6099 2.06961 25.7211 2.15165 25.8032C2.23368 25.8852 2.34492 25.9313 2.46093 25.9313H29.5404C29.6565 25.9313 29.7677 25.8853 29.8497 25.8032C29.9319 25.7212 29.978 25.6099 29.978 25.4939V23.5156C29.978 23.3996 29.9319 23.2883 29.8497 23.2063C29.7677 23.1243 29.6565 23.0781 29.5404 23.0781ZM29.1029 25.0564H2.89844V23.9531H29.1029V25.0564Z" fill="#EC7D1A"/>
<path d="M2.8856 11.55L4.58386 14.5249C4.39366 14.6679 4.24907 14.8629 4.16768 15.0864C4.0863 15.3099 4.07162 15.5523 4.12544 15.784C4.17926 16.0156 4.29926 16.2267 4.47083 16.3915C4.6424 16.5563 4.85816 16.6676 5.09186 16.712L8.78311 17.412C9.64328 17.5743 10.5167 17.6557 11.3921 17.6555C12.3205 17.6545 13.2465 17.5624 14.1568 17.3805L12.2659 20.0335C12.2124 20.1088 12.1841 20.1991 12.185 20.2913C12.1859 20.3837 12.216 20.4735 12.271 20.5476C12.326 20.6219 12.403 20.6767 12.4911 20.7045C12.5792 20.7323 12.6738 20.7315 12.7613 20.7023L16.4464 19.4652C16.518 19.4412 16.5821 19.3991 16.6327 19.3429L19.8504 15.7647L28.3848 13.2457C28.5655 13.1925 28.7339 13.1043 28.8803 12.986C29.0268 12.8677 29.1485 12.7217 29.2385 12.5564C29.3285 12.391 29.3852 12.2095 29.4051 12.0223C29.4249 11.8351 29.4077 11.6458 29.3544 11.4652C29.2119 10.9823 28.9049 10.5645 28.4868 10.2839C28.0688 10.0034 27.5657 9.87796 27.0648 9.92923L25.9584 10.0427C25.382 10.1024 24.8005 9.9952 24.2833 9.73397C23.3955 9.28468 22.3693 9.19203 21.4153 9.47497L19.2331 10.1192L14.0628 9.01372C13.9852 8.99697 13.9043 9.00172 13.8291 9.02748L10.1574 10.2887C10.0719 10.3184 9.99767 10.3738 9.945 10.4474C9.89232 10.521 9.86376 10.6091 9.86324 10.6995C9.86272 10.79 9.89027 10.8785 9.9421 10.9526C9.99391 11.0268 10.0675 11.0831 10.1526 11.1137L12.7396 12.0347L8.20035 13.3749L4.8956 10.6C4.84024 10.5535 4.77424 10.5215 4.70348 10.5067C4.63272 10.492 4.55942 10.495 4.49011 10.5155L3.14135 10.9135C3.07812 10.9322 3.01994 10.9651 2.97116 11.0095C2.92239 11.0539 2.88428 11.1087 2.8597 11.1699C2.8351 11.2311 2.82466 11.2971 2.82914 11.3629C2.83363 11.4287 2.85294 11.4927 2.8856 11.55ZM13.9987 9.89472L17.4753 10.638L14.1659 11.6147L11.6254 10.71L13.9987 9.89472ZM16.0588 18.6725L13.7608 19.444L17.1953 14.6249L20.7787 13.4223L16.0588 18.6725ZM4.5126 11.4207L7.8176 14.1957C7.87291 14.2421 7.93887 14.2743 8.00958 14.2891C8.08028 14.3039 8.15356 14.3009 8.22286 14.2805L21.6628 10.3142C22.4028 10.094 23.1991 10.1656 23.8879 10.5142C24.5548 10.8503 25.304 10.9884 26.0468 10.9122L27.1528 10.7987C27.4509 10.7675 27.7504 10.8419 27.9992 11.0088C28.248 11.1758 28.4303 11.4248 28.5144 11.7125C28.5561 11.8545 28.5397 12.0073 28.4688 12.1372C28.398 12.2672 28.2784 12.3637 28.1364 12.4055L20.9653 14.5227L22.5404 12.7702C22.6051 12.6983 22.6441 12.607 22.6515 12.5106C22.6588 12.4141 22.6339 12.318 22.5808 12.2372C22.5276 12.1564 22.4492 12.0954 22.3577 12.0639C22.2663 12.0324 22.1669 12.0321 22.0753 12.063L16.7824 13.84C16.6949 13.8691 16.6189 13.9251 16.5653 14L14.9291 16.2957C12.9802 16.8353 10.9338 16.9224 8.94611 16.55L5.25411 15.85C5.1905 15.8383 5.13142 15.8089 5.08351 15.7656C5.03559 15.7221 5.00074 15.6661 4.98286 15.604C4.95648 15.5144 4.96671 15.4181 5.01128 15.3361C5.05586 15.2541 5.13115 15.1932 5.2206 15.1667L5.32235 15.1367C5.38564 15.118 5.4439 15.0852 5.49272 15.0408C5.54155 14.9964 5.5797 14.9415 5.60432 14.8803C5.62895 14.8191 5.6394 14.7529 5.6349 14.6872C5.6304 14.6213 5.61107 14.5573 5.57835 14.5L3.91935 11.596L4.5126 11.4207Z" fill="black"/>
<path d="M9.55181 18.4164L8.9943 18.581C8.89356 18.611 8.80697 18.6763 8.7504 18.7648C8.69384 18.8535 8.67105 18.9595 8.68622 19.0636C8.70138 19.1676 8.7535 19.2627 8.83302 19.3315C8.91254 19.4003 9.01417 19.4382 9.1193 19.4382C9.16161 19.4382 9.20369 19.4322 9.2443 19.4204L9.80181 19.2556C9.85692 19.2394 9.90828 19.2124 9.95296 19.1763C9.99764 19.1402 10.0348 19.0955 10.0622 19.0451C10.0897 18.9946 10.1069 18.9392 10.1129 18.882C10.119 18.825 10.1137 18.7671 10.0974 18.712C10.0812 18.657 10.0542 18.6056 10.018 18.5608C9.9819 18.5162 9.93733 18.4791 9.88685 18.4516C9.83637 18.4242 9.78097 18.407 9.72384 18.4008C9.66669 18.3948 9.60892 18.4002 9.55381 18.4164H9.55181Z" fill="#EC7D1A"/>
<path d="M7.53192 19.014L5.16717 19.7122C5.11207 19.7285 5.06069 19.7554 5.01601 19.7916C4.97133 19.8277 4.93419 19.8722 4.90673 19.9228C4.87927 19.9732 4.86201 20.0286 4.85596 20.0857C4.84989 20.1429 4.85515 20.2006 4.87141 20.2557C4.90427 20.367 4.97999 20.4608 5.08192 20.5162C5.13239 20.5437 5.18777 20.5609 5.24491 20.5669C5.30204 20.573 5.35981 20.5677 5.41492 20.5514L7.77992 19.8533C7.89121 19.8204 7.98488 19.7446 8.04032 19.6426C8.09576 19.5408 8.10843 19.4209 8.07555 19.3096C8.04265 19.1984 7.96691 19.1046 7.86496 19.0492C7.76301 18.9938 7.64321 18.9812 7.53192 19.014Z" fill="#EC7D1A"/>
<path d="M2.60582 18.8605C2.63883 18.9717 2.71462 19.0653 2.81655 19.1208C2.91848 19.1763 3.03824 19.1891 3.14956 19.1563L5.82206 18.3671C5.93154 18.3327 6.02311 18.2565 6.07706 18.1552C6.13102 18.054 6.14303 17.9355 6.11051 17.8255C6.07799 17.7153 6.00355 17.6225 5.90322 17.5668C5.80288 17.5111 5.68468 17.4969 5.57406 17.5276L2.90156 18.3168C2.79024 18.3497 2.69656 18.4255 2.6411 18.5275C2.58563 18.6293 2.57294 18.7492 2.60582 18.8605Z" fill="#EC7D1A"/>
</svg>
