<svg width="32" height="32" viewBox="0 0 32 32" fill="none" xmlns="http://www.w3.org/2000/svg">
<g clip-path="url(#clip0_518_240)">
<path d="M18.3119 7.68293C18.2715 7.72346 18.2535 7.89458 18.2535 8.20079C18.2535 8.51151 18.2715 8.67362 18.3119 8.70514C18.3569 8.74116 19.373 8.7952 20.1013 8.80421H20.2632L20.2722 9.17346L20.2811 9.54722H16.4371H12.5976L12.4717 9.6598C12.4043 9.72285 12.2289 9.93449 12.0851 10.1326C11.8333 10.4659 11.8153 10.5064 11.8378 10.673C11.8648 10.8486 11.8513 10.8666 11.2668 11.5916L10.6644 12.3302L9.89555 12.3211C9.16271 12.3166 9.11325 12.3211 8.91094 12.4247C8.69963 12.5328 8.24554 12.9651 8.14213 13.1587C8.10617 13.2308 8.10167 13.2893 8.13314 13.3434C8.16911 13.4064 8.14213 13.4649 8.00725 13.6271C7.91284 13.7351 7.65657 14.0503 7.43178 14.3295L7.02714 14.8294L6.97319 14.6538C6.94172 14.5547 6.8563 14.4016 6.77537 14.3115C6.5191 14.0188 6.47414 14.0143 4.968 14.0233C4.22618 14.0233 3.38544 14.0368 3.10219 14.0503C2.81895 14.0594 2.18053 14.0819 1.68597 14.0954C0.382154 14.1314 0.193325 14.1584 0.0584471 14.3385C-0.0269756 14.4511 -0.00899186 14.7213 0.0899186 14.8519C0.215805 15.014 0.215805 15.5319 0.0899186 15.694C0.0269756 15.7705 0 15.8786 0 16.0407C0 16.4865 0.440601 17.162 2.01418 19.1164C2.97181 20.3052 3.56078 20.8906 4.37904 21.494C4.67577 21.7102 5.24226 22.1965 5.6379 22.5793C6.44717 23.3493 6.64948 23.5024 6.98218 23.5745C7.36434 23.66 8.92892 23.8401 9.5089 23.8717C9.80563 23.8852 10.1114 23.9032 10.1833 23.9122C11.0735 24.0293 18.204 24.0293 19.3999 23.9122C19.5213 23.8987 20.0384 23.8582 20.5464 23.8221C21.0544 23.7816 21.549 23.7411 21.6479 23.7321C21.7468 23.7231 21.9716 23.7005 22.1425 23.687C22.6325 23.642 24.0173 23.4889 24.6152 23.4123C24.912 23.3763 25.2357 23.3313 25.3346 23.3223C25.5774 23.2908 27.088 23.0476 27.5601 22.9665C28.3019 22.8359 29.246 22.5793 29.5608 22.4217C29.8035 22.3001 30.0193 22.2415 30.5049 22.156C31.3366 22.0119 31.5929 21.9308 31.7683 21.7552C31.9211 21.6021 32.029 21.3049 31.9931 21.1338C31.9796 21.0752 31.9616 20.9807 31.9481 20.9176C31.9346 20.8546 31.8357 20.7015 31.7233 20.5799C31.53 20.3682 31.521 20.3412 31.5165 20.0935C31.5165 19.9494 31.485 19.7738 31.449 19.6973C31.3456 19.5036 31.2018 19.4631 30.8151 19.5216L30.4914 19.5712L30.2711 19.4136C29.9609 19.1929 29.6147 19.0263 29.4573 19.0263C29.327 19.0263 29.318 19.0128 29.291 18.8327C29.273 18.7156 29.291 18.4814 29.3315 18.2518C29.3719 18.0446 29.4034 17.7519 29.4034 17.6123C29.4034 17.3782 29.3899 17.3376 29.255 17.2025C29.0707 17.0179 28.8909 16.9684 28.23 16.9323L27.7084 16.9008L27.5061 16.5091C26.7328 15.0185 26.2113 13.9918 26.2113 13.9648C26.2113 13.9468 26.3282 13.9468 26.472 13.9603C26.6114 13.9738 26.7508 13.9693 26.7778 13.9513C26.9261 13.8387 28.0097 12.069 28.0097 11.9384C28.0097 11.8708 27.9737 11.8033 27.9242 11.7808C27.8073 11.7177 27.0071 11.5961 26.4765 11.5646C25.9775 11.5331 26.0584 11.4791 25.5729 12.1365C25.4155 12.3482 25.2761 12.5148 25.2581 12.5058C25.2357 12.5013 25.0918 12.4968 24.9299 12.4968H24.6422L24.332 11.8528C24.0397 11.2449 24.0308 11.2089 24.0937 11.0963C24.1521 10.9882 24.1521 10.9522 24.0532 10.691C23.9049 10.2812 23.6936 9.88946 23.6081 9.86695C23.4867 9.82642 22.8124 9.75887 22.0436 9.70033L21.3107 9.64179V9.2275V8.80871L21.7288 8.82672C23.0282 8.88977 23.208 8.89427 23.2934 8.84924C23.3699 8.80421 23.3788 8.75017 23.3788 8.30886C23.3788 7.88557 23.3699 7.80902 23.3024 7.7775C23.199 7.72346 22.3178 7.68743 20.1418 7.65141C18.6986 7.62889 18.3569 7.6334 18.3119 7.68293ZM22.3718 8.06119C22.4167 8.0702 22.5831 8.07921 22.7404 8.07921L23.0192 8.08371V8.31337V8.54753L22.7854 8.52051C22.655 8.5025 21.9716 8.47998 21.2658 8.46647C20.5599 8.45296 19.7821 8.43045 19.5348 8.42144C19.2875 8.41244 18.9818 8.39893 18.8559 8.39893C18.6266 8.39893 18.6221 8.39893 18.6042 8.24582C18.5727 7.96212 18.4558 7.97563 20.4565 8.01166C21.4636 8.02967 22.3223 8.05219 22.3718 8.06119ZM20.951 9.223V9.73185L20.7937 9.71384C20.6183 9.69132 20.6318 9.73185 20.6318 9.11943C20.6318 8.69163 20.6228 8.71415 20.7937 8.71415H20.951V9.223ZM19.7371 9.92999C21.3242 9.99303 22.6325 10.0831 23.2979 10.1822C23.4373 10.2047 23.4778 10.2362 23.5542 10.3938C23.6036 10.4974 23.6576 10.637 23.6711 10.7045C23.6981 10.8036 23.6891 10.8216 23.6171 10.8081C23.4957 10.7811 21.6794 10.6595 20.6363 10.6055C18.8514 10.5199 18.1591 10.5064 15.2322 10.4749L12.2739 10.4478L12.4717 10.2002L12.6695 9.9525L12.9977 9.92549C13.5103 9.88946 18.6986 9.88946 19.7371 9.92999ZM19.2201 10.8036C19.2965 10.8126 19.7461 10.8351 20.2272 10.8531C20.7083 10.8666 21.1758 10.8892 21.2613 10.8982C21.3512 10.9072 21.6479 10.9297 21.9177 10.9432C23.0686 11.0017 23.4867 11.0513 23.5542 11.1368C23.5857 11.1774 23.761 11.5151 23.9453 11.8888L24.2735 12.5643L23.8599 12.5778C23.6306 12.5868 23.4058 12.5823 23.3564 12.5688C23.2934 12.5508 23.2035 12.4022 23.0641 12.105C22.7449 11.4115 22.6325 11.326 21.9716 11.2584C21.6299 11.2269 21.3692 11.2989 21.3017 11.443C21.2568 11.5421 21.3017 12.06 21.3871 12.4427C21.4096 12.5328 21.3961 12.5463 21.3062 12.5328C21.2073 12.5193 21.1983 12.4833 21.1264 12.0239C21.005 11.2089 20.9825 11.1864 20.0743 11.1548L19.4269 11.1323L19.2651 11.2944L19.1077 11.452V11.9744V12.5013L18.6941 12.4788C18.4648 12.4652 18.0602 12.4517 17.7949 12.4517H17.3093V11.8663C17.3093 11.2944 17.3048 11.2719 17.1969 11.1638C17.0845 11.0513 17.0755 11.0513 16.4551 11.0648C15.6503 11.0828 15.6593 11.0783 15.448 11.8708C15.2997 12.4247 15.2997 12.4292 15.1603 12.4427L15.0254 12.4562L15.1333 12.1095C15.4345 11.1683 15.3401 11.0107 14.4859 11.0107C13.8115 11.0107 13.7845 11.0333 13.3754 11.8348C13.0832 12.4112 13.0517 12.4517 12.9348 12.4517C12.8629 12.4517 12.8134 12.4382 12.8224 12.4157C12.8314 12.3977 12.9348 12.1906 13.0517 11.9564C13.3125 11.434 13.3349 11.2269 13.1551 11.0693C13.0472 10.9792 12.9887 10.9657 12.6516 10.9657C12.4447 10.9657 12.2739 10.9522 12.2739 10.9342C12.2739 10.9207 12.3099 10.8666 12.3548 10.8171C12.4313 10.7315 12.4897 10.727 15.7582 10.7541C17.5881 10.7721 19.1482 10.7901 19.2201 10.8036ZM13.0157 11.2854C13.0607 11.353 12.9303 11.6727 12.692 12.096L12.4942 12.4517H11.7748C11.3747 12.4517 11.06 12.4382 11.069 12.4157C11.078 12.3977 11.2938 12.123 11.55 11.8078L12.0176 11.2359H12.5032C12.7999 11.2359 12.9977 11.2539 13.0157 11.2854ZM15.0029 11.353C15.0569 11.4295 15.0389 11.5331 14.8546 12.1005L14.7377 12.4517H14.0678C13.6991 12.4517 13.3979 12.4382 13.3979 12.4157C13.3979 12.3662 13.8295 11.4926 13.9014 11.398C13.9868 11.2854 14.2521 11.2359 14.6343 11.2629C14.8456 11.2764 14.967 11.3034 15.0029 11.353ZM17.0531 11.3845C17.0711 11.4115 17.08 11.5601 17.0666 11.7042C17.0486 11.8483 17.0396 12.078 17.0396 12.2086V12.4517H16.3022H15.5649L15.6998 11.9429C15.7762 11.6682 15.8527 11.4205 15.8706 11.398C15.9785 11.2854 16.9721 11.2719 17.0531 11.3845ZM20.7307 11.4926C20.7892 11.5511 20.9016 12.105 20.9016 12.3482L20.9061 12.4968H20.1418H19.3775V12.0104C19.3775 11.6817 19.3954 11.5061 19.4359 11.4656C19.5078 11.389 20.6498 11.4115 20.7307 11.4926ZM22.4302 11.6097C22.5066 11.6457 22.619 11.8033 22.7584 12.069C22.8753 12.2896 22.9697 12.4923 22.9742 12.5193C22.9742 12.5598 21.7198 12.5598 21.6794 12.5193C21.6344 12.4788 21.5265 11.6412 21.5535 11.5736C21.5805 11.5016 21.6254 11.4971 21.9491 11.5241C22.1515 11.5421 22.3673 11.5781 22.4302 11.6097ZM27.0071 11.9789C27.2948 12.0194 27.5421 12.0555 27.5511 12.0645C27.5556 12.0735 27.3488 12.4247 27.088 12.8435L26.6069 13.6L26.1304 13.591C25.1682 13.564 22.7629 13.4875 22.3673 13.4649C22.147 13.4514 21.5985 13.4334 21.1534 13.4199C17.9073 13.3253 16.9272 13.3073 14.4544 13.2803C12.9213 13.2668 11.6085 13.2488 11.5321 13.2398C11.4601 13.2353 10.7812 13.2128 10.0259 13.1948C9.27061 13.1767 8.64568 13.1542 8.63668 13.1452C8.60521 13.1137 8.77606 12.9426 8.97838 12.803L9.1717 12.6724L13.1821 12.6949C17.8039 12.7219 21.2253 12.7625 21.5805 12.7895C21.7154 12.7985 22.5876 12.821 23.5137 12.839C24.4399 12.8525 25.2492 12.875 25.3121 12.8795C25.4605 12.8975 25.5279 12.83 25.8876 12.3302C26.2338 11.8483 26.1573 11.8708 27.0071 11.9789ZM9.98097 13.4604C10.6374 13.4785 11.649 13.501 12.2289 13.51C14.2386 13.555 14.895 13.5775 14.9175 13.5955C14.9265 13.609 14.877 13.7261 14.8051 13.8567L14.6702 14.0954L14.2521 14.1449C13.8655 14.1854 13.825 14.2035 13.7081 14.334C13.5822 14.4736 13.5777 14.5007 13.5777 14.8969C13.5777 15.3112 13.5777 15.3157 13.4428 15.3923C13.3709 15.4373 13.308 15.4688 13.308 15.4598C13.308 15.4508 13.299 15.2212 13.2945 14.9465C13.2765 14.1944 13.209 14.1224 12.4627 14.0864C11.6175 14.0458 11.4961 14.1404 11.3792 14.933L11.3028 15.4463L11.1319 15.4598C10.9656 15.4733 10.9611 15.4688 10.9881 15.3608C11.0555 15.0906 11.1499 14.5367 11.1499 14.4061C11.1499 14.316 11.1094 14.2305 11.0375 14.1629C10.9386 14.0684 10.8712 14.0549 10.4261 14.0368C9.81912 14.0098 9.4999 14.0729 9.34255 14.244C9.27511 14.3115 9.11775 14.5952 8.99186 14.8699C8.75808 15.3698 8.74908 15.3788 8.60521 15.3788C8.51979 15.3788 8.45235 15.3698 8.45235 15.3653C8.45235 15.3563 8.56475 15.1356 8.69963 14.8789C8.9469 14.4061 9.00535 14.1494 8.89295 14.0368C8.86148 14.0053 8.71312 13.9828 8.53328 13.9828C8.36693 13.9828 8.22756 13.9693 8.22756 13.9468C8.22756 13.8792 8.68164 13.4019 8.7356 13.4199C8.76707 13.4289 9.32456 13.4469 9.98097 13.4604ZM16.617 13.591C16.626 13.6 16.527 13.8027 16.4057 14.0413C16.1179 14.6042 15.9606 15.05 15.9291 15.4283L15.9021 15.73L15.7492 15.667C15.6458 15.6219 15.3131 15.5949 14.6792 15.5724C14.1712 15.5589 13.7576 15.5319 13.7576 15.5184C13.7576 15.5049 13.843 15.4283 13.9419 15.3563C14.2881 15.1041 14.8231 14.4106 15.1018 13.8612L15.2412 13.582L15.5649 13.5685C15.8931 13.5505 16.5945 13.5685 16.617 13.591ZM20.0294 13.6451C20.1777 13.6586 20.7128 13.6766 21.2208 13.6901C21.7288 13.7036 22.3673 13.7216 22.637 13.7351C22.9113 13.7486 23.4058 13.7667 23.7385 13.7802C24.0712 13.7892 24.6602 13.8117 25.0468 13.8297L25.7482 13.8612L26.0899 14.5412C26.2787 14.9149 26.6384 15.6174 26.8857 16.0993C27.1329 16.5811 27.3353 16.9774 27.3353 16.9819C27.3353 16.9864 27.2409 16.9774 27.124 16.9684C27.0026 16.9594 26.5844 16.9369 26.1888 16.9188L25.4739 16.8873L25.375 16.6171C25.3166 16.4685 25.1907 16.1128 25.0873 15.8291C24.6872 14.7258 24.5478 14.4826 24.26 14.3881C24.1836 14.3656 23.7925 14.3385 23.3923 14.334C22.6865 14.3205 22.664 14.325 22.5561 14.4241C22.4931 14.4826 22.4347 14.5862 22.4212 14.6538C22.4077 14.7213 22.4842 15.2257 22.5876 15.775L22.7809 16.7747H22.5606C22.4437 16.7747 22.3448 16.7612 22.3448 16.7477C22.3448 16.6802 22.0615 15.0996 22.0031 14.8474C21.8592 14.2215 21.8098 14.1899 20.969 14.1719C20.2227 14.1539 20.0653 14.1944 19.944 14.4511C19.872 14.6042 19.872 14.6538 19.9844 15.5724C20.1328 16.8288 20.1373 16.7342 19.908 16.7027C19.8001 16.6847 19.7102 16.6712 19.7057 16.6667C19.6922 16.6577 19.6292 16.1983 19.5798 15.8066C19.4989 15.1491 19.364 14.4466 19.3055 14.3521C19.2651 14.2935 19.1392 14.2035 19.0268 14.1539C18.838 14.0684 18.757 14.0639 18.2265 14.0864C17.6106 14.1089 17.4577 14.1539 17.2869 14.3431C17.2014 14.4376 17.1969 14.4962 17.2104 15.5184L17.2284 16.5946H17.0666C16.8463 16.5946 16.7159 16.5361 16.4956 16.3379C16.2618 16.1263 16.1854 15.9507 16.1854 15.6129C16.1854 15.1581 16.3742 14.6132 16.8013 13.8567L16.9587 13.564L18.3614 13.5955C19.1302 13.6135 19.881 13.6361 20.0294 13.6451ZM8.67715 14.289C8.67715 14.3566 8.20957 15.2752 8.13764 15.3472C8.11965 15.3698 7.87687 15.3743 7.60262 15.3563L7.10357 15.3202L7.18899 15.2031C7.23845 15.1401 7.43627 14.8924 7.63859 14.6493L7.99826 14.217H8.33546C8.61421 14.217 8.67715 14.2305 8.67715 14.289ZM10.8082 14.325C10.8981 14.3611 10.8981 14.4962 10.8082 14.9735C10.7318 15.3518 10.6778 15.4868 10.6104 15.4463C10.5924 15.4373 10.2417 15.4238 9.8326 15.4193C9.42347 15.4193 9.08178 15.4058 9.06829 15.3968C9.04132 15.3698 9.43696 14.5232 9.52688 14.4151C9.55835 14.3791 9.62579 14.3385 9.67974 14.3295C9.8371 14.298 10.7318 14.2935 10.8082 14.325ZM6.34826 14.4241C6.54608 14.5052 6.65398 14.7258 6.65398 15.05C6.65398 15.2707 6.64049 15.3337 6.58654 15.3337C6.53259 15.3337 6.5191 15.2707 6.5191 15.0185C6.5191 14.7528 6.50561 14.6943 6.42019 14.6132C6.28531 14.4872 6.19989 14.4691 5.79975 14.4872L5.46256 14.5007L5.44907 14.9149C5.44008 15.2437 5.42209 15.3337 5.37264 15.3337C5.32318 15.3337 5.3052 15.2437 5.29621 14.9149L5.28272 14.5007L4.81514 14.4872C4.51392 14.4781 4.32958 14.4917 4.28912 14.5277C4.24416 14.5637 4.22618 14.6898 4.22618 14.978C4.22618 15.5094 4.14525 15.4959 4.12727 14.96L4.11378 14.5457H3.59675H3.07971L3.06623 14.96C3.05723 15.2887 3.03925 15.3788 2.98979 15.3788C2.94034 15.3788 2.92236 15.2887 2.91336 14.96L2.89988 14.5457L2.4368 14.5547C2.18053 14.5592 1.94224 14.5727 1.90628 14.5862C1.85682 14.6042 1.84333 14.7033 1.84333 15.0185C1.84333 15.3427 1.82984 15.4238 1.77589 15.4238C1.72644 15.4238 1.70845 15.3382 1.69946 15.005L1.68597 14.5907L1.2184 14.5997C0.957633 14.6042 0.719349 14.6222 0.687878 14.6313C0.647414 14.6493 0.62943 14.7754 0.62943 15.0861C0.62943 15.3427 0.611447 15.5139 0.584471 15.5139C0.53052 15.5139 0.53052 15.5094 0.535016 15.0545C0.539512 14.7528 0.526024 14.6988 0.449593 14.6583C0.400138 14.6313 0.359675 14.5907 0.359675 14.5682C0.359675 14.4872 1.18243 14.4466 3.66418 14.4061C4.55438 14.3881 5.28722 14.3746 5.29171 14.3701C5.33667 14.3385 6.25834 14.3881 6.34826 14.4241ZM12.9753 14.4511C13.0202 14.5142 13.0382 14.6808 13.0382 15.032V15.5274L12.3099 15.4959C11.9052 15.4778 11.577 15.4598 11.5725 15.4553C11.568 15.4508 11.5995 15.2257 11.64 14.9555C11.7029 14.5862 11.7434 14.4466 11.8063 14.4016C11.8693 14.3521 12.0131 14.3385 12.3998 14.3521C12.8449 14.3656 12.9213 14.3791 12.9753 14.4511ZM18.9728 14.4106C19.0762 14.4646 19.1122 14.5232 19.1482 14.7123C19.1976 14.9555 19.4224 16.5451 19.4224 16.6441C19.4224 16.6802 19.1796 16.6847 18.4693 16.6622C17.9433 16.6441 17.5072 16.6261 17.5027 16.6216C17.4982 16.6171 17.4802 16.1488 17.4622 15.5814C17.4262 14.2755 17.3633 14.3656 18.3569 14.3476C18.7076 14.3431 18.8784 14.3611 18.9728 14.4106ZM14.4319 14.4286C14.4319 14.4511 14.324 14.5907 14.1982 14.7348C13.8565 15.1086 13.825 15.1131 13.843 14.7799C13.8565 14.5187 13.8969 14.4466 14.0408 14.4196C14.2296 14.3836 14.4319 14.3881 14.4319 14.4286ZM21.567 14.5052C21.6209 14.5412 21.6884 14.6448 21.7109 14.7348C21.7558 14.9059 22.075 16.6577 22.075 16.7387C22.075 16.7702 21.7648 16.7702 21.2343 16.7522C20.7667 16.7342 20.3846 16.7162 20.3846 16.7117C20.3801 16.7117 20.3216 16.2344 20.2542 15.658C20.1013 14.3205 20.0608 14.3791 21.041 14.4241C21.2972 14.4331 21.5085 14.4691 21.567 14.5052ZM24.269 14.6853C24.3275 14.7213 24.4129 14.8474 24.4669 14.9645C24.5658 15.1986 25.1772 16.8153 25.1772 16.8513C25.1772 16.8918 23.0866 16.8108 23.0596 16.7702C23.0461 16.7477 22.9472 16.2749 22.8438 15.7165C22.6775 14.8519 22.6595 14.6943 22.709 14.6313C22.7629 14.5637 22.8528 14.5592 23.4688 14.5862C23.9768 14.6087 24.1926 14.6358 24.269 14.6853ZM4.98149 15.05L4.99498 15.2437H4.78817H4.58585V15.0726C4.58585 14.8564 4.61283 14.8294 4.81065 14.8474C4.95901 14.8609 4.968 14.8699 4.98149 15.05ZM6.15943 15.041V15.2437H5.97959H5.79975V15.041V14.8384H5.97959H6.15943V15.041ZM2.55369 15.0951C2.5402 15.3112 2.5402 15.3112 2.37385 15.3247L2.20301 15.3382V15.1401C2.20301 14.9014 2.22099 14.8834 2.41432 14.8834H2.56718L2.55369 15.0951ZM3.77658 15.0861V15.2887H3.60124C3.43489 15.2887 3.4259 15.2797 3.40792 15.1356C3.38094 14.9149 3.40342 14.8834 3.60124 14.8834H3.77658V15.0861ZM1.33979 15.1401C1.3263 15.3563 1.3263 15.3563 1.15995 15.3698L0.989105 15.3833V15.1851C0.989105 14.9465 1.00709 14.9285 1.20041 14.9285H1.35328L1.33979 15.1401ZM9.73369 15.6715C10.2597 15.6985 12.6875 15.7705 14.0498 15.8066C14.5713 15.8201 15.1468 15.8426 15.3311 15.8561L15.6683 15.8831L16.0235 16.2434C16.59 16.8153 16.608 16.8198 17.3633 16.8648C18.0691 16.9053 18.766 16.9323 20.9061 16.9999C21.6839 17.0224 22.6685 17.0539 23.0866 17.0674C26.472 17.1755 28.6885 17.2971 28.9043 17.3872L29.0572 17.4502L29.0302 17.7564C29.0167 17.923 28.9808 18.2202 28.9493 18.4184C28.8954 18.7696 28.8998 18.7921 29.0347 19.274C29.1157 19.5442 29.237 19.9224 29.309 20.107C29.3809 20.2917 29.4349 20.4493 29.4259 20.4583C29.3764 20.5123 26.6114 20.7015 25.5594 20.724C23.6531 20.76 22.5021 20.6339 19.8271 20.0845C17.8039 19.6657 16.3472 19.283 15.4435 18.9272C15.0434 18.7696 14.2431 18.4274 13.8025 18.2247C13.6137 18.1392 12.665 17.7429 11.9862 17.4682C11.7209 17.3601 11.3657 17.2296 11.1994 17.18C10.525 16.9819 9.14023 16.8648 7.41829 16.8648C6.46515 16.8648 5.70084 16.8828 1.93325 16.9774L0.831747 17.0089L0.665398 16.7432C0.350683 16.2479 0.292236 15.9957 0.449593 15.8516C0.561991 15.7525 1.02957 15.712 2.8774 15.6535C4.04634 15.6129 8.76707 15.6264 9.73369 15.6715ZM9.01434 17.135C9.98097 17.189 10.5385 17.2566 10.9566 17.3601C11.3837 17.4727 12.184 17.7879 13.9599 18.5535C14.7512 18.8957 15.5424 19.2199 15.7133 19.283C16.9137 19.6973 19.4359 20.2827 21.6929 20.6699C23.163 20.9176 23.4373 20.9401 25.1997 20.9401C26.7238 20.9356 27.7039 20.8816 29.318 20.715L29.5248 20.6925L29.6462 21.0842C29.9429 22.0704 29.8215 22.147 26.9082 22.7189C26.5215 22.7954 24.5163 23.0701 23.6711 23.1647C21.7154 23.3853 19.5528 23.5564 17.9433 23.6195C14.7287 23.7456 9.05031 23.6015 8.4029 23.3718C8.30399 23.3358 8.01625 23.1422 7.76447 22.944C7.25194 22.5387 6.60003 22.1875 5.68286 21.8182C4.50942 21.3499 3.55179 20.4808 1.8838 18.3733C1.16894 17.4682 1.02058 17.2701 1.03856 17.2521C1.06554 17.2296 2.6571 17.1845 4.47345 17.153C5.39062 17.135 6.14594 17.117 6.15493 17.108C6.19539 17.0719 8.28151 17.0945 9.01434 17.135ZM29.826 19.5532C29.9384 19.6207 30.0328 19.6928 30.0328 19.7108C30.0328 19.7333 29.9429 19.7468 29.835 19.7468C29.7271 19.7468 29.6012 19.7603 29.5652 19.7738C29.5113 19.7918 29.4753 19.7558 29.4259 19.6387C29.3899 19.5532 29.3584 19.4541 29.3584 19.4271C29.3584 19.346 29.5877 19.4091 29.826 19.5532ZM31.1298 19.8909C31.1433 19.9224 31.1613 20.1476 31.1748 20.3862C31.1973 20.7555 31.1883 20.8275 31.1343 20.8275C31.0804 20.8275 31.0669 20.7555 31.0669 20.4763C31.0669 19.9765 31.0399 19.9494 30.6173 20.0305L30.2801 20.089L30.2846 20.5258C30.2891 20.7645 30.2711 20.9626 30.2486 20.9626C30.1902 20.9626 30.1767 20.8906 30.1542 20.5258C30.1407 20.3502 30.1182 20.1791 30.1003 20.1476C30.0778 20.1116 29.9879 20.107 29.826 20.1251C29.6282 20.1476 29.5832 20.1386 29.5832 20.0845C29.5832 20.035 29.6372 20.017 29.7766 20.0125C29.88 20.008 30.1902 19.972 30.4599 19.9269C31.0984 19.8279 31.1118 19.8279 31.1298 19.8909ZM30.8061 20.5348C30.8061 20.6699 30.8106 20.8095 30.8151 20.8366C30.8196 20.9131 30.6128 20.9401 30.5723 20.8726C30.5544 20.8456 30.5364 20.7015 30.5319 20.5574L30.5229 20.2872H30.6578C30.7971 20.2872 30.7971 20.2917 30.8061 20.5348ZM29.8979 20.5529C29.8979 20.6474 29.9114 20.796 29.9249 20.8771C29.9699 21.1112 29.8755 20.9852 29.79 20.697C29.7001 20.3862 29.7001 20.3772 29.808 20.3772C29.8845 20.3772 29.8979 20.4088 29.8979 20.5529ZM31.6244 21.0797C31.6693 21.2553 31.5704 21.494 31.4311 21.5706C31.3142 21.6291 30.6623 21.7732 30.2127 21.8408L30.0103 21.8723V21.5751C30.0103 21.2328 29.9249 21.2824 30.6802 21.1878C31.1163 21.1338 31.3232 21.0662 31.4221 20.9446C31.4985 20.8546 31.5839 20.9131 31.6244 21.0797ZM6.49662 22.4667C6.98668 22.7054 7.86338 23.2772 7.81393 23.3268C7.80494 23.3358 7.58464 23.3043 7.31938 23.2592C6.77537 23.1692 6.81134 23.1917 6.15493 22.5658C5.61991 22.0614 5.6379 22.0524 6.49662 22.4667Z" fill="black" stroke="black" stroke-width="0.1"/>
<path d="M13.7137 17.5267C13.6373 17.6258 13.6193 17.6934 13.6373 17.833C13.6822 18.1482 13.7587 18.1752 14.5365 18.1617C15.2019 18.1482 15.2109 18.1482 15.2963 18.0311C15.3637 17.941 15.3772 17.878 15.3502 17.7429C15.2918 17.4277 15.2378 17.4052 14.4825 17.4052H13.8081L13.7137 17.5267ZM15.0085 17.8014C15.022 17.8465 14.9141 17.8555 14.5185 17.8465C14.1588 17.8375 14.006 17.8149 13.9925 17.7744C13.979 17.7294 14.0869 17.7204 14.4825 17.7294C14.8422 17.7384 14.9951 17.7609 15.0085 17.8014Z" fill="#EC7D1A"/>
<path d="M4.36202 17.3962C3.90793 17.4052 3.836 17.4187 3.74608 17.5042C3.6157 17.6258 3.60221 17.932 3.7281 18.0852C3.81801 18.1932 3.77755 18.1932 4.64527 18.1797C5.10385 18.1707 5.13532 18.1617 5.24772 18.0536C5.34213 17.9546 5.36012 17.9095 5.33764 17.7564C5.32415 17.6529 5.2702 17.5313 5.22074 17.4817C5.12183 17.3782 5.10385 17.3782 4.36202 17.3962ZM4.99145 17.7564C4.99145 17.806 4.62279 17.8555 4.24063 17.8555C3.97537 17.8555 3.85398 17.797 4.03831 17.7519C4.20466 17.7159 4.99145 17.7204 4.99145 17.7564Z" fill="#EC7D1A"/>
<path d="M6.88868 17.4007C6.37615 17.4277 6.32669 17.4367 6.24577 17.5358C6.12437 17.6844 6.13786 17.914 6.26824 18.0671L6.37615 18.1932L6.95612 18.1797C7.27084 18.1752 7.58555 18.1572 7.65749 18.1437C7.82833 18.1077 7.91825 17.923 7.8688 17.6979C7.79686 17.3782 7.73392 17.3602 6.88868 17.4007ZM7.55408 17.7609C7.55408 17.815 7.41471 17.8375 6.93814 17.851C6.67737 17.86 6.52002 17.8465 6.52002 17.815C6.52002 17.7564 6.67737 17.7339 7.16294 17.7249C7.37874 17.7249 7.55408 17.7384 7.55408 17.7609Z" fill="#EC7D1A"/>
<path d="M9.32945 17.3917C8.85288 17.4052 8.78094 17.4187 8.69102 17.5042C8.55615 17.6303 8.54715 17.932 8.67304 18.0852C8.75846 18.1932 8.77195 18.1932 9.40138 18.1797C10.0128 18.1662 10.1837 18.1302 10.2601 18.0176C10.323 17.923 10.2961 17.5988 10.2196 17.4997C10.1207 17.3827 10.0173 17.3737 9.32945 17.3917ZM9.95438 17.7609C9.98585 17.806 9.61719 17.8555 9.23054 17.8555C8.94729 17.8555 8.83939 17.7879 9.07318 17.7519C9.31146 17.7159 9.9319 17.7204 9.95438 17.7609Z" fill="#EC7D1A"/>
</g>
<defs>
<clipPath id="clip0_518_240">
<rect width="32" height="32" fill="white"/>
</clipPath>
</defs>
</svg>
