<svg width="32" height="32" viewBox="0 0 32 32" fill="none" xmlns="http://www.w3.org/2000/svg">
<path d="M3.09905 8.13828C2.79286 8.19843 2.44293 8.4062 2.28437 8.61944C1.98912 9.01858 2.00005 8.7944 2.00005 14.9073C2.00005 18.6417 2.02192 20.6428 2.05473 20.7741C2.14221 21.0803 2.432 21.4247 2.73272 21.5778C2.97877 21.7036 3.08265 21.72 3.82625 21.7473L4.64641 21.7747L4.70655 22.0207C4.93619 22.9065 5.729 23.6883 6.64757 23.9344C6.97563 24.0219 7.6755 24.0109 7.99809 23.918C8.93306 23.6391 9.74774 22.8026 9.90084 21.9551L9.93911 21.7583L10.557 21.7364C11.2623 21.72 11.4044 21.6489 11.4044 21.3372C11.4044 20.9982 11.3224 20.96 10.6062 20.9272L9.96098 20.8998L9.90084 20.6483C9.72587 19.9649 9.15724 19.265 8.51205 18.9424C7.73564 18.5542 6.92096 18.5433 6.14455 18.9205C5.42828 19.265 4.9526 19.8118 4.72842 20.5554L4.6136 20.9272H3.97388C3.61848 20.9272 3.25215 20.8998 3.15373 20.867C2.8038 20.7413 2.8202 21.0584 2.8202 14.8909V9.28103L2.97877 9.10606L3.13733 8.92563H15.4396H27.7419L27.8785 9.05139C27.9934 9.16074 28.1355 9.5216 28.1355 9.71297C28.1355 9.75671 27.2716 9.77312 25.3634 9.77312C22.7061 9.77312 22.5804 9.77859 22.4109 9.88247C22.0281 10.1121 22.0391 10.041 22.0227 12.5507C22.0063 15.0057 22.0281 15.3009 22.2742 15.6509C22.6952 16.2632 24.1004 16.8264 26.0031 17.1545C26.539 17.2474 27.381 17.3404 28.8354 17.4607L29.1744 17.4935V18.9205C29.1744 20.2054 29.1634 20.3749 29.076 20.539C28.9065 20.8506 28.6932 20.9272 27.9934 20.9272H27.381L27.2662 20.5554C27.042 19.8118 26.5663 19.265 25.85 18.9205C25.0736 18.5433 24.2589 18.5542 23.4825 18.9424C22.8374 19.265 22.2687 19.9649 22.0937 20.6483L22.0336 20.8998L17.3751 20.9272C13.0885 20.9545 12.7112 20.96 12.6292 21.0475C12.4816 21.1951 12.5089 21.4685 12.6839 21.6216L12.8315 21.7473H17.4408H22.0555L22.0937 21.9496C22.1648 22.3433 22.4546 22.8573 22.7991 23.2017C23.3349 23.7376 23.9528 24 24.6909 24C25.4673 24 26.0141 23.7649 26.5827 23.2017C26.9709 22.808 27.1677 22.48 27.288 22.0207L27.3482 21.7747L28.0863 21.7419C29.1306 21.6981 29.5079 21.5122 29.8414 20.8725L29.9672 20.6264L29.9836 17.7669L30 14.9018L29.4204 11.9711C28.9611 9.65283 28.808 8.98031 28.6987 8.778C28.562 8.52102 28.316 8.31872 27.9988 8.17656C27.8676 8.11641 25.5329 8.10548 15.5872 8.10001C8.85105 8.09454 3.23028 8.11095 3.09905 8.13828ZM28.7424 12.7803C29.1689 14.9291 29.1744 14.9455 29.1744 15.804V16.6679L28.8354 16.635C28.644 16.6186 28.1847 16.5804 27.8075 16.553C25.9102 16.389 24.3902 16.0391 23.4224 15.5306C22.8264 15.2189 22.8592 15.3939 22.8428 12.8186L22.8264 10.5933L25.5712 10.6042L28.3105 10.6206L28.7424 12.7803ZM7.77938 19.5274C8.14572 19.6259 8.38083 19.7735 8.67061 20.0851C9.02054 20.4679 9.13536 20.7577 9.13536 21.3099C9.13536 21.7036 9.11349 21.8239 8.98227 22.1027C8.56673 22.9939 7.54974 23.3986 6.6093 23.0541C6.17735 22.8955 5.72354 22.4362 5.55404 21.9879C5.38454 21.5395 5.41735 20.9162 5.63059 20.5007C6.04613 19.686 6.90455 19.2978 7.77938 19.5274ZM25.4782 19.6313C25.8446 19.8008 26.1726 20.1234 26.364 20.5007C26.5772 20.9162 26.61 21.5395 26.4405 21.9879C26.271 22.4362 25.8172 22.8955 25.3853 23.0541C24.4448 23.3986 23.4279 22.9939 23.0123 22.1027C22.81 21.6708 22.7936 20.9928 22.9795 20.5882C23.1162 20.2929 23.4716 19.8883 23.745 19.7188C24.2207 19.4236 24.9479 19.3908 25.4782 19.6313Z" fill="black"/>
<path d="M4.14368 9.88249C3.81016 10.0903 3.80469 10.1231 3.80469 12.7257C3.80469 15.2791 3.81016 15.3283 4.10541 15.5579L4.2585 15.6782H7.91091H11.5688L11.7766 15.4923L11.9789 15.3064V12.764C11.9789 10.2652 11.9789 10.216 11.864 10.0629C11.6453 9.76767 11.7547 9.77314 7.90544 9.77314C4.4116 9.77314 4.31865 9.7786 4.14368 9.88249ZM7.46803 12.7257V14.8581H6.04643H4.62484V12.7257V10.5933H6.04643H7.46803V12.7257ZM11.186 12.7257V14.8581H9.76445H8.34286V12.7257V10.5933H9.76445H11.186V12.7257Z" fill="#EC7D1A"/>
<path d="M13.1706 9.86061C12.8262 10.0301 12.8262 10.052 12.8262 12.7257C12.8262 15.372 12.8262 15.3939 13.1488 15.5853C13.2964 15.6727 13.6135 15.6782 16.9105 15.6782C20.7816 15.6782 20.6668 15.6837 20.8855 15.3884C21.0003 15.2353 21.0003 15.1861 21.0003 12.7366C21.0003 10.3746 20.9949 10.2269 20.8965 10.0848C20.6777 9.76219 20.809 9.77313 16.916 9.77313C13.7885 9.77313 13.3237 9.78407 13.1706 9.86061ZM16.5004 11.0799C16.5223 11.6485 16.6043 11.7962 16.9105 11.7962C17.2276 11.7962 17.3097 11.654 17.3097 11.0854V10.5933H18.7586H20.2075V12.7257V14.8581H18.7586H17.3097V14.016C17.3097 13.2779 17.2987 13.1576 17.2112 13.0483C17.0746 12.8842 16.8012 12.8842 16.6371 13.0483C16.5278 13.1576 16.5169 13.2287 16.5004 14.0106L16.484 14.8581H15.0624H13.6463V12.7257V10.5933H15.0624H16.4786L16.5004 11.0799Z" fill="#EC7D1A"/>
<path d="M22.1584 17.4169C22.0271 17.5646 22.0381 17.8817 22.1802 18.0074C22.2786 18.0949 22.3825 18.1113 22.8035 18.1113C23.405 18.1113 23.5417 18.0348 23.5417 17.7013C23.5417 17.3732 23.4323 17.3185 22.7926 17.3185C22.3333 17.3185 22.2294 17.3349 22.1584 17.4169Z" fill="black"/>
</svg>
